IKResults C02
version=1
nRows=12
nColumns=24
inDegrees=yes

Units are S.I. units (second, meters, Newtons, ...)
If the header above contains a line with 'inDegrees', this indicates whether rotational values are in degrees (yes) or radians (no).

endheader
time	pelvis_tilt	pelvis_list	pelvis_rotation	pelvis_tx	pelvis_ty	pelvis_tz	hip_flexion_r	hip_adduction_r	hip_rotation_r	knee_angle_r	ankle_angle_r	subtalar_angle_r	mtp_angle_r	hip_flexion_l	hip_adduction_l	hip_rotation_l	knee_angle_l	ankle_angle_l	subtalar_angle_l	mtp_angle_l	lumbar_extension	lumbar_bending	lumbar_rotation
      7.91000000	     -7.99613880	      2.71644598	    -76.95318065	     -0.24364373	      0.94653570	     -1.13017477	     16.40110342	     12.08783476	     -5.67442227	    -12.84202392	      4.25473472	    -17.76861966	      0.00000000	     25.95631832	     -6.43541930	     10.09650304	    -75.32290546	     -0.30924210	     -6.34853878	      0.00000000	     -7.53051624	      9.39838801	     -3.61212739
      7.92000000	     -7.84236665	      2.48054054	    -77.41941550	     -0.24449467	      0.94832464	     -1.11426494	     14.91654287	     12.36105362	     -5.51455089	    -12.72391841	      6.08135743	    -15.29865274	      0.00000000	     27.52110488	     -6.16809738	      9.71107848	    -75.13803515	      0.06454195	     -7.87551011	      0.00000000	     -7.84357245	      9.04799576	     -2.90987070
      7.93000000	     -7.74889354	      2.24255623	    -77.87627076	     -0.24545165	      0.94965815	     -1.09868967	     13.52870212	     12.63938674	     -5.53648923	    -12.69973639	      6.77385669	    -15.01752376	      0.00000000	     29.05457789	     -6.00726261	      9.34731524	    -74.67691547	      1.30917548	     -8.53851279	      0.00000000	     -8.17816554	      8.82457970	     -2.48270900
      7.94000000	     -7.49043519	      2.05213758	    -78.64192555	     -0.24668642	      0.95083035	     -1.08278203	     12.00713111	     12.90739775	     -4.42478771	    -12.52150833	      7.74038326	    -14.99505697	      0.00000000	     30.35017523	     -5.85548556	      8.60595355	    -73.77195820	      2.26031541	     -9.32244228	      0.00000000	     -8.49358710	      8.33751060	     -1.63390735
      7.95000000	     -7.16021445	      1.85543823	    -79.55317759	     -0.24809890	      0.95175967	     -1.06679317	     10.49849912	     13.04358070	     -3.35383620	    -12.45585663	      8.65210669	    -14.83591261	      0.00000000	     31.44854929	     -5.75692433	      7.69500240	    -72.50149417	      2.97028827	    -10.24063553	      0.00000000	     -8.83709298	      7.75926632	     -0.56947254
      7.96000000	     -6.86467143	      1.71367508	    -80.40489489	     -0.24935199	      0.95214917	     -1.05122198	      9.16314558	     13.10591084	     -2.64732311	    -12.52614464	      9.85926332	    -14.07232781	      0.00000000	     32.59822617	     -5.64483635	      6.84224980	    -71.05194317	      3.34012423	    -11.64049845	      0.00000000	     -8.96167900	      7.16546608	      0.61170609
      7.97000000	     -6.57653319	      1.55957328	    -81.28387734	     -0.25053442	      0.95228501	     -1.03582799	      7.78245489	     13.17215257	     -1.57762348	    -12.53299083	     10.21289855	    -14.03814001	      0.00000000	     33.62617160	     -5.60885228	      5.96086285	    -69.28214427	      3.52264027	    -11.97821542	      0.00000000	     -9.46431670	      6.57304076	      0.88005254
      7.98000000	     -6.25930753	      1.33926351	    -82.28131028	     -0.25160242	      0.95238944	     -1.02019036	      6.25673107	     13.20929489	     -0.17335566	    -12.51947124	     11.80982570	    -14.17916267	      0.00000000	     34.40253295	     -5.62338755	      4.95134153	    -67.25655732	      4.24981740	    -13.64074008	      0.00000000	     -9.82974157	      6.18407064	      2.54187214
      7.99000000	     -6.03403200	      1.13364426	    -83.19075093	     -0.25246726	      0.95212515	     -1.00483792	      4.79978422	     13.27694324	      1.17017730	    -12.51916590	     12.93315099	    -14.12878100	      0.00000000	     35.19184471	     -5.71738551	      4.01630630	    -64.99279898	      4.18569854	    -15.15134609	      0.00000000	    -10.25526643	      5.76391592	      3.73563826
      8.00000000	     -5.78722061	      1.01172811	    -84.21593173	     -0.25327783	      0.95146516	     -0.98980707	      3.51383114	     13.24608186	      2.60444758	    -12.63868205	     13.20339367	    -14.12603848	      0.00000000	     35.94360739	     -5.84375682	      3.00077174	    -62.52992506	      4.17271947	    -15.54794790	      0.00000000	    -10.56158288	      5.15610209	      4.03587714
      8.01000000	     -5.70807521	      0.80194038	    -85.03932891	     -0.25371895	      0.95068959	     -0.97473017	      2.11494397	     13.32881586	      3.69494722	    -12.62502029	     14.53560733	    -13.79909288	      0.00000000	     36.55805380	     -6.06447854	      2.20934995	    -59.89128693	      3.07511999	    -18.74935356	      0.00000000	    -10.93151603	      5.03993392	      5.79813085
      8.02000000	     -5.59640380	      0.65609145	    -85.92395101	     -0.25393283	      0.94972659	     -0.95953377	      0.77537587	     13.30376609	      4.90676389	    -12.65289380	     15.42359431	    -14.11419979	      0.00000000	     37.07992653	     -6.28771843	      1.33168611	    -57.03003244	      3.20179618	    -19.34132137	      0.00000000	    -11.30810480	      4.82758959	      6.38421121
